<?xml version="1.0" encoding="UTF-8" standalone="no"?>
<svg
   xmlns:dc="http://purl.org/dc/elements/1.1/"
   xmlns:cc="http://creativecommons.org/ns#"
   xmlns:rdf="http://www.w3.org/1999/02/22-rdf-syntax-ns#"
   xmlns:svg="http://www.w3.org/2000/svg"
   xmlns="http://www.w3.org/2000/svg"
   id="svg5342"
   version="1.1"
   viewBox="0 0 5.0830216 5.0830688"
   height="5.0830688mm"
   width="5.0830216mm">
  <defs
     id="defs5336">
    <clipPath
       id="clipPath604"
       clipPathUnits="userSpaceOnUse">
      <path
         id="path602"
         d="m 179.959,274.897 c -3.838,-1.049 -6.099,-5.009 -5.05,-8.846 v 0 c 1.047,-3.838 5.007,-6.099 8.845,-5.05 v 0 c 3.837,1.047 6.098,5.007 5.051,8.845 v 0 c -0.875,3.202 -3.778,5.307 -6.945,5.307 v 0 c -0.628,0 -1.266,-0.083 -1.901,-0.256" />
    </clipPath>
    <radialGradient
       id="radialGradient616"
       spreadMethod="pad"
       gradientTransform="matrix(6.8219595,-6.3534093,6.3534093,6.8219595,179.17062,270.0231)"
       gradientUnits="userSpaceOnUse"
       r="1"
       cy="0"
       cx="0"
       fy="0"
       fx="0">
      <stop
         id="stop610"
         offset="0"
         style="stop-opacity:1;stop-color:#ff90fc" />
      <stop
         id="stop612"
         offset="0.0765537"
         style="stop-opacity:1;stop-color:#ff90fc" />
      <stop
         id="stop614"
         offset="1"
         style="stop-opacity:1;stop-color:#7253ff" />
    </radialGradient>
  </defs>
  <metadata
     id="metadata5339">
    <rdf:RDF>
      <cc:Work
         rdf:about="">
        <dc:format>image/svg+xml</dc:format>
        <dc:type
           rdf:resource="http://purl.org/dc/dcmitype/StillImage" />
        <dc:title></dc:title>
      </cc:Work>
    </rdf:RDF>
  </metadata>
  <g
     transform="translate(41.851031,-60.869178)"
     id="layer1">
    <g
       id="g598"
       transform="matrix(0.35277777,0,0,-0.35277777,-103.46448,157.93704)">
      <g
         clip-path="url(#clipPath604)"
         id="g600">
        <g
           id="g606">
          <g
             id="g608">
            <path
               id="path618"
               style="fill:url(#radialGradient616);stroke:none"
               d="m 179.959,274.897 c -3.838,-1.049 -6.099,-5.009 -5.05,-8.846 v 0 c 1.047,-3.838 5.007,-6.099 8.845,-5.05 v 0 c 3.837,1.047 6.098,5.007 5.051,8.845 v 0 c -0.875,3.202 -3.778,5.307 -6.945,5.307 v 0 c -0.628,0 -1.266,-0.083 -1.901,-0.256" />
          </g>
        </g>
      </g>
    </g>
  </g>
</svg>
